<mxfile host="app.diagrams.net" agent="Mozilla/5.0 (Windows NT 10.0; Win64; x64) AppleWebKit/537.36 (KHTML, like Gecko) Chrome/132.0.0.0 Safari/537.36" version="26.0.9">
  <diagram name="Page-1" id="4Rl1KOQ5e_K7sw6ODg2t">
    <mxGraphModel dx="3062" dy="1348" grid="0" gridSize="10" guides="1" tooltips="1" connect="1" arrows="1" fold="1" page="0" pageScale="1" pageWidth="827" pageHeight="1169" math="0" shadow="0">
      <root>
        <mxCell id="0" />
        <mxCell id="1" parent="0" />
        <mxCell id="GUHguhEJ7RxG043piMK7-3" value="" style="rounded=0;whiteSpace=wrap;html=1;" vertex="1" parent="1">
          <mxGeometry x="-9" y="-99" width="260" height="478" as="geometry" />
        </mxCell>
        <mxCell id="GUHguhEJ7RxG043piMK7-4" value="Serveur Traitement (Linux)" style="text;html=1;align=center;verticalAlign=middle;whiteSpace=wrap;rounded=0;" vertex="1" parent="1">
          <mxGeometry x="64.5" y="-76" width="113" height="30" as="geometry" />
        </mxCell>
        <mxCell id="GUHguhEJ7RxG043piMK7-6" value="" style="group" vertex="1" connectable="0" parent="1">
          <mxGeometry x="30" y="-9" width="182" height="80" as="geometry" />
        </mxCell>
        <mxCell id="GUHguhEJ7RxG043piMK7-1" value="Base De DonnÃ©es" style="rounded=0;whiteSpace=wrap;html=1;" vertex="1" parent="GUHguhEJ7RxG043piMK7-6">
          <mxGeometry width="182" height="80" as="geometry" />
        </mxCell>
        <mxCell id="GUHguhEJ7RxG043piMK7-7" value="Code De Traitement" style="rounded=0;whiteSpace=wrap;html=1;" vertex="1" parent="1">
          <mxGeometry x="30" y="84" width="182" height="80" as="geometry" />
        </mxCell>
        <mxCell id="GUHguhEJ7RxG043piMK7-8" value="Serveur Application&lt;br&gt;(socket/php)" style="rounded=0;whiteSpace=wrap;html=1;" vertex="1" parent="1">
          <mxGeometry x="30" y="176" width="182" height="80" as="geometry" />
        </mxCell>
        <mxCell id="GUHguhEJ7RxG043piMK7-9" value="Serveur MQTT" style="rounded=0;whiteSpace=wrap;html=1;" vertex="1" parent="1">
          <mxGeometry x="30" y="268" width="182" height="80" as="geometry" />
        </mxCell>
      </root>
    </mxGraphModel>
  </diagram>
</mxfile>
